<?xml version="1.0" encoding="UTF-8"?>
<svg xmlns="http://www.w3.org/2000/svg" xmlns:xlink="http://www.w3.org/1999/xlink" width="204pt" height="202pt" viewBox="0 0 204 202" version="1.1">
<g id="surface1">
<path style=" stroke:none;fill-rule:nonzero;fill:rgb(65.490196%,45.882353%,94.509804%);fill-opacity:1;" d="M 204 202 L 204 118.28125 L 164.992188 118.28125 C 164.992188 106.65625 166.34375 96.136719 169.050781 86.730469 C 171.753906 77.324219 175.757812 68.335938 181.0625 59.777344 C 186.367188 51.214844 194.015625 44.078125 204 38.371094 L 204 0 C 184.859375 8.457031 169.257812 19.554688 157.191406 33.296875 C 145.125 47.039062 136.179688 62.101562 130.355469 78.484375 C 124.527344 94.867188 121.617188 118.707031 121.617188 149.996094 L 121.617188 202 Z M 82.382812 202 L 82.382812 118.28125 L 43.378906 118.28125 C 43.378906 106.65625 44.730469 96.136719 47.433594 86.730469 C 50.140625 77.324219 54.140625 68.335938 59.449219 59.777344 C 64.75 51.214844 72.398438 44.078125 82.382812 38.371094 L 82.382812 0 C 63.453125 8.457031 47.902344 19.554688 35.730469 33.296875 C 23.558594 47.039062 14.5625 62.101562 8.738281 78.484375 C 2.914062 94.867188 0 118.707031 0 149.996094 L 0 202 Z M 82.382812 202 "/>
</g>
</svg>
